<svg width="135" height="746" viewBox="0 0 135 746" fill="none" xmlns="http://www.w3.org/2000/svg">
<path d="M3 -0.8V40L28 50L28 104L3 114.2V155.8L144 96.2V58.8L3 -0.8ZM58.2 61.4L98 77.2L58.2 92.8L58.2 61.4ZM3 169.384L3 241.584C3 274.984 17.6 294.584 41.6 294.584H42C61 294.584 70.6 283.784 76.2 266.784C81.6 279.184 91.2 288.384 107.4 288.384H107.8C117.4 288.384 124.8 284.984 130.4 279.384C138.6 271.184 143 258.784 143 241.184L143 169.384L3 169.384ZM87.2 207.184L111.8 207.184V232.384C111.8 243.984 107.4 249.984 99.8 249.984H99.4C91.2 249.984 87.2 243.384 87.2 231.584V207.184ZM34.2 207.184H60V236.784C60 249.784 55 255.784 47.4 255.784H47C38.8 255.784 34.2 248.984 34.2 237.184V207.184ZM0.2 382.753C0.2 425.953 32.8 458.353 73 458.353H73.4C113.6 458.353 145.8 426.353 145.8 383.153C145.8 339.953 113.2 307.553 73 307.553H72.6C32.4 307.553 0.2 339.553 0.2 382.753ZM35.2 383.153C35.2 361.953 52.8 347.353 73 347.353H73.4C93.6 347.353 110.8 361.553 110.8 382.753C110.8 404.153 93.2 418.753 73 418.753H72.6C52.4 418.753 35.2 404.553 35.2 383.153ZM0.4 541.564C0.4 581.364 20.2 607.164 65.4 607.164H143V567.764H64.2C44.6 567.764 35.4 557.564 35.4 541.964C35.4 526.364 45 516.164 65.2 516.164H143V476.764H64.4C20.6 476.764 0.4 501.764 0.4 541.564ZM3 664.327V703.127H109V745.127H143L143 622.327H109V664.327H3Z" fill="#545454" fill-opacity="0.2"/>
</svg>
