<?xml version="1.0" encoding="utf-8"?>
<!-- Generator: Adobe Illustrator 23.0.1, SVG Export Plug-In . SVG Version: 6.00 Build 0)  -->
<svg version="1.1" id="Capa_1" xmlns="http://www.w3.org/2000/svg" xmlns:xlink="http://www.w3.org/1999/xlink" x="0px" y="0px"
	 viewBox="0 0 430.1 430.1" style="enable-background:new 0 0 430.1 430.1;" xml:space="preserve">
<style type="text/css">
	.st0{fill:#FFFFFF;}
</style>
<g>
	<g id="XMLID_1_">
		<g>
			<path d="M430.1,30.8v368.5c0,17-14.2,30.8-31.8,30.8H31.8C14.2,430.1,0,416.3,0,399.3V30.8C0,13.8,14.2,0,31.8,0h366.6
				C415.9,0,430.1,13.8,430.1,30.8z M364.7,360V248.7c0-59.7-32.1-87.4-74.8-87.4c-34.5,0-49.9,18.9-58.5,32.1v-27.5h-65
				c0.9,18.2,0,194.2,0,194.2h64.9V251.6c0-5.8,0.4-11.6,2.2-15.7c4.7-11.6,15.3-23.6,33.3-23.6c23.5,0,32.9,17.8,32.9,43.9V360
				H364.7z M130.4,360V165.9h-65V360H130.4z M134.6,105.8c-0.4-19-14.1-33.5-36.3-33.5c-22.2,0-36.8,14.5-36.8,33.5
				c0,18.7,14.1,33.6,35.9,33.6h0.4C120.6,139.3,134.6,124.4,134.6,105.8z"/>
			<path class="st0" d="M364.7,248.7V360h-65V256.1c0-26.1-9.4-43.9-32.9-43.9c-18,0-28.7,12-33.3,23.6c-1.7,4.1-2.2,9.9-2.2,15.7
				V360h-64.9c0,0,0.9-176,0-194.2h65v27.5c8.6-13.2,24-32.1,58.5-32.1C332.6,161.3,364.7,189,364.7,248.7z M231.3,194v-0.6
				c-0.2,0.2-0.3,0.4-0.4,0.6H231.3z"/>
			<path d="M231.3,193.4v0.6h-0.4C231,193.8,231.1,193.6,231.3,193.4z"/>
			<rect x="65.4" y="165.9" class="st0" width="65" height="194.2"/>
			<path class="st0" d="M98.3,72.2c22.2,0,35.9,14.5,36.3,33.5c0,18.7-14.1,33.6-36.7,33.6h-0.4c-21.8,0-35.9-14.9-35.9-33.6
				C61.6,86.7,76.1,72.2,98.3,72.2z"/>
		</g>
		<g>
		</g>
	</g>
</g>
</svg>
